<svg width="200" height="32" viewBox="0 0 200 32" fill="none" xmlns="http://www.w3.org/2000/svg">
<path fill-rule="evenodd" clip-rule="evenodd" d="M11.0527 4.072C12.3324 4.01309 12.7404 4 16 4C19.2596 4 19.6676 4.01418 20.9462 4.072C22.2247 4.12982 23.0975 4.33382 23.8611 4.62945C24.6607 4.93164 25.3862 5.404 25.9862 6.01491C26.5971 6.61382 27.0684 7.33818 27.3695 8.13891C27.6662 8.90255 27.8691 9.77527 27.928 11.0516C27.9869 12.3335 28 12.7415 28 16C28 19.2596 27.9858 19.6676 27.928 20.9473C27.8702 22.2236 27.6662 23.0964 27.3695 23.86C27.0684 24.6608 26.5963 25.3864 25.9862 25.9862C25.3862 26.5971 24.6607 27.0684 23.8611 27.3695C23.0975 27.6662 22.2247 27.8691 20.9484 27.928C19.6676 27.9869 19.2596 28 16 28C12.7404 28 12.3324 27.9858 11.0527 27.928C9.77636 27.8702 8.90364 27.6662 8.14 27.3695C7.33919 27.0683 6.61362 26.5963 6.01382 25.9862C5.40332 25.3869 4.93089 24.6617 4.62945 23.8611C4.33382 23.0975 4.13091 22.2247 4.072 20.9484C4.01309 19.6665 4 19.2585 4 16C4 12.7404 4.01418 12.3324 4.072 11.0538C4.12982 9.77527 4.33382 8.90255 4.62945 8.13891C4.93133 7.33827 5.40413 6.61307 6.01491 6.01382C6.61386 5.40346 7.3387 4.93103 8.13891 4.62945C8.90255 4.33382 9.77527 4.13091 11.0516 4.072H11.0527ZM20.8491 6.232C19.5836 6.17418 19.204 6.16218 16 6.16218C12.796 6.16218 12.4164 6.17418 11.1509 6.232C9.98036 6.28545 9.34545 6.48073 8.92218 6.64545C8.36255 6.86364 7.96218 7.12218 7.54218 7.54218C7.14405 7.92951 6.83765 8.40104 6.64545 8.92218C6.48073 9.34545 6.28545 9.98036 6.232 11.1509C6.17418 12.4164 6.16218 12.796 6.16218 16C6.16218 19.204 6.17418 19.5836 6.232 20.8491C6.28545 22.0196 6.48073 22.6545 6.64545 23.0778C6.83745 23.5982 7.144 24.0705 7.54218 24.4578C7.92945 24.856 8.40182 25.1625 8.92218 25.3545C9.34545 25.5193 9.98036 25.7145 11.1509 25.768C12.4164 25.8258 12.7949 25.8378 16 25.8378C19.2051 25.8378 19.5836 25.8258 20.8491 25.768C22.0196 25.7145 22.6545 25.5193 23.0778 25.3545C23.6375 25.1364 24.0378 24.8778 24.4578 24.4578C24.856 24.0705 25.1625 23.5982 25.3545 23.0778C25.5193 22.6545 25.7145 22.0196 25.768 20.8491C25.8258 19.5836 25.8378 19.204 25.8378 16C25.8378 12.796 25.8258 12.4164 25.768 11.1509C25.7145 9.98036 25.5193 9.34545 25.3545 8.92218C25.1364 8.36255 24.8778 7.96218 24.4578 7.54218C24.0705 7.14408 23.5989 6.83768 23.0778 6.64545C22.6545 6.48073 22.0196 6.28545 20.8491 6.232ZM14.4673 19.6993C15.3233 20.0556 16.2764 20.1037 17.1639 19.8353C18.0514 19.567 18.8182 18.9988 19.3334 18.2279C19.8485 17.457 20.0801 16.5311 19.9884 15.6085C19.8968 14.6858 19.4876 13.8236 18.8309 13.1691C18.4123 12.7507 17.906 12.4303 17.3487 12.2311C16.7914 12.0318 16.1968 11.9586 15.6078 12.0167C15.0188 12.0748 14.45 12.2627 13.9423 12.5671C13.4347 12.8714 13.0008 13.2844 12.672 13.7766C12.3431 14.2687 12.1275 14.8276 12.0406 15.413C11.9536 15.9985 11.9976 16.596 12.1693 17.1624C12.341 17.7288 12.6362 18.2501 13.0335 18.6888C13.4309 19.1275 13.9205 19.4726 14.4673 19.6993ZM11.6385 11.6385C12.2113 11.0658 12.8913 10.6115 13.6396 10.3015C14.3879 9.99151 15.19 9.83197 16 9.83197C16.81 9.83197 17.6121 9.99151 18.3604 10.3015C19.1087 10.6115 19.7887 11.0658 20.3615 11.6385C20.9342 12.2113 21.3885 12.8913 21.6985 13.6396C22.0085 14.3879 22.168 15.19 22.168 16C22.168 16.81 22.0085 17.6121 21.6985 18.3604C21.3885 19.1087 20.9342 19.7887 20.3615 20.3615C19.2047 21.5182 17.6359 22.168 16 22.168C14.3641 22.168 12.7953 21.5182 11.6385 20.3615C10.4818 19.2047 9.83197 17.6359 9.83197 16C9.83197 14.3641 10.4818 12.7953 11.6385 11.6385ZM23.536 10.7505C23.6779 10.6167 23.7916 10.4557 23.8701 10.2771C23.9487 10.0985 23.9907 9.90593 23.9935 9.71083C23.9964 9.51574 23.9601 9.32205 23.8867 9.14125C23.8134 8.96044 23.7045 8.79619 23.5665 8.65822C23.4285 8.52026 23.2643 8.41137 23.0835 8.33802C22.9027 8.26467 22.709 8.22834 22.5139 8.23118C22.3188 8.23403 22.1263 8.27599 21.9477 8.35458C21.7691 8.43317 21.6081 8.54679 21.4742 8.68873C21.2138 8.96476 21.0712 9.33141 21.0768 9.71083C21.0823 10.0903 21.2355 10.4526 21.5038 10.7209C21.7721 10.9892 22.1345 11.1424 22.5139 11.148C22.8933 11.1535 23.26 11.0109 23.536 10.7505Z" fill="#F9F9F9"/>
<path fill-rule="evenodd" clip-rule="evenodd" d="M60 6.00509C60 5.47331 60.2113 4.96331 60.5873 4.58728C60.9633 4.21125 61.4733 4 62.0051 4H81.9927C82.2563 3.99957 82.5173 4.05113 82.7609 4.15171C83.0045 4.2523 83.2258 4.39994 83.4123 4.58619C83.5987 4.77243 83.7466 4.99363 83.8475 5.2371C83.9483 5.48058 84.0001 5.74156 84 6.00509V25.9927C84.0003 26.2563 83.9486 26.5174 83.8479 26.761C83.7472 27.0046 83.5994 27.2259 83.4131 27.4123C83.2268 27.5988 83.0055 27.7466 82.762 27.8475C82.5184 27.9483 82.2574 28.0001 81.9938 28H62.0051C61.7417 28 61.4809 27.9481 61.2375 27.8473C60.9942 27.7464 60.7731 27.5986 60.5869 27.4123C60.4007 27.226 60.253 27.0049 60.1523 26.7615C60.0516 26.5181 59.9999 26.2572 60 25.9938V6.00509ZM69.4996 13.1505H72.7495V14.7825C73.2185 13.8444 74.4185 13 76.2218 13C79.6789 13 80.4982 14.8687 80.4982 18.2975V24.6487H76.9996V19.0785C76.9996 17.1258 76.5305 16.024 75.3393 16.024C73.6865 16.024 72.9993 17.212 72.9993 19.0785V24.6487H69.4996V13.1505ZM63.4996 24.4993H66.9993V13H63.4996V24.4982V24.4993ZM67.5 9.24946C67.5066 9.5491 67.4533 9.84704 67.3432 10.1258C67.2331 10.4046 67.0684 10.6585 66.8588 10.8728C66.6492 11.087 66.3989 11.2572 66.1227 11.3735C65.8464 11.4897 65.5497 11.5495 65.25 11.5495C64.9503 11.5495 64.6536 11.4897 64.3773 11.3735C64.1011 11.2572 63.8508 11.087 63.6412 10.8728C63.4316 10.6585 63.2669 10.4046 63.1568 10.1258C63.0467 9.84704 62.9934 9.5491 63 9.24946C63.013 8.6613 63.2557 8.10159 63.6762 7.69021C64.0968 7.27882 64.6617 7.04846 65.25 7.04846C65.8383 7.04846 66.4032 7.27882 66.8238 7.69021C67.2443 8.10159 67.487 8.6613 67.5 9.24946Z" fill="#F9F9F9"/>
<path d="M128 4C121.372 4 116 9.3724 116 16C116 22.6276 121.372 28 128 28C134.628 28 140 22.6276 140 16C140 9.3724 134.628 4 128 4ZM128 5.7388C130.614 5.7388 133 6.7168 134.812 8.326C133.481 10.0822 131.458 11.2516 129.432 12.043C128.284 9.95341 126.998 7.94292 125.583 6.025C126.374 5.83414 127.186 5.73807 128.001 5.7388H128ZM123.634 6.7108C124.972 8.7124 126.268 10.5682 127.452 12.6688C124.458 13.4446 121.075 13.9102 117.949 13.918C118.608 10.7212 120.756 8.0668 123.634 6.7114V6.7108ZM135.951 9.5128C137.433 11.3248 138.249 13.5909 138.261 15.9322C135.888 15.4642 133.527 15.3418 131.124 15.5842C130.854 14.9104 130.526 14.2702 130.212 13.5802C132.284 12.7444 134.499 11.314 135.951 9.5122V9.5128ZM128.286 14.2564C128.542 14.8024 128.84 15.382 129.12 15.9742C125.778 17.4478 122.223 19.417 120.378 22.8694C118.606 20.9094 117.662 18.3399 117.744 15.6994C121.323 15.6826 124.836 15.235 128.286 14.2564ZM133.708 17.0542C135.202 17.0545 136.689 17.2461 138.133 17.6242C137.911 19.0139 137.404 20.343 136.646 21.5287C135.888 22.7144 134.893 23.7314 133.725 24.5164C133.174 22.0114 132.649 19.6144 131.721 17.1976C132.379 17.1017 133.043 17.0536 133.708 17.0536L133.708 17.0542ZM138.187 17.2402C138.18 17.299 138.173 17.3566 138.165 17.4142C138.173 17.356 138.18 17.2984 138.187 17.2402ZM129.823 17.6662C130.768 20.11 131.511 22.816 132.009 25.4494C130.741 25.9873 129.378 26.2636 128.001 26.2618C125.719 26.2651 123.503 25.5047 121.704 24.1018C123.562 21.0874 126.44 18.8062 129.822 17.6668L129.823 17.6662Z" fill="#F9F9F9"/>
<path fill-rule="evenodd" clip-rule="evenodd" d="M184 4C177.37 4 172 9.37 172 16C172 21.31 175.435 25.795 180.205 27.385C180.805 27.49 181.03 27.13 181.03 26.815C181.03 26.53 181.015 25.585 181.015 24.58C178 25.135 177.22 23.845 176.98 23.17C176.845 22.825 176.26 21.76 175.75 21.475C175.33 21.25 174.73 20.695 175.735 20.68C176.68 20.665 177.355 21.55 177.58 21.91C178.66 23.725 180.385 23.215 181.075 22.9C181.18 22.12 181.495 21.595 181.84 21.295C179.17 20.995 176.38 19.96 176.38 15.37C176.38 14.065 176.845 12.985 177.61 12.145C177.49 11.845 177.07 10.615 177.73 8.965C177.73 8.965 178.735 8.65 181.03 10.195C181.99 9.925 183.01 9.79 184.03 9.79C185.05 9.79 186.07 9.925 187.03 10.195C189.325 8.635 190.33 8.965 190.33 8.965C190.99 10.615 190.57 11.845 190.45 12.145C191.215 12.985 191.68 14.05 191.68 15.37C191.68 19.975 188.875 20.995 186.205 21.295C186.64 21.67 187.015 22.39 187.015 23.515C187.015 25.12 187 26.41 187 26.815C187 27.13 187.225 27.505 187.825 27.385C190.207 26.5807 192.277 25.0497 193.744 23.0074C195.21 20.965 195.999 18.5143 196 16C196 9.37 190.63 4 184 4Z" fill="#F9F9F9"/>
</svg>
