<svg width="89" height="89" viewBox="0 0 89 89" fill="none" xmlns="http://www.w3.org/2000/svg">
<g filter="url(#filter0_d)">
<path d="M25.5061 59.6899L25.8596 59.3363L25.5061 58.9828L25.1525 59.3363L25.5061 59.6899ZM44.598 78.7818L44.2444 79.1353L44.598 79.4889L44.9515 79.1353L44.598 78.7818ZM63.6899 59.6899L64.0434 59.3363L63.6899 58.9828L63.3363 59.3363L63.6899 59.6899ZM64.397 60.397L64.7505 60.7505L65.1041 60.397L64.7505 60.0434L64.397 60.397ZM44.598 80.196L44.2444 80.5495L44.598 80.9031L44.9515 80.5495L44.598 80.196ZM24.799 60.397L24.4454 60.0434L24.0919 60.397L24.4454 60.7505L24.799 60.397ZM25.5061 21.5061L25.8596 21.8597L26.2132 21.5061L25.8596 21.1526L25.5061 21.5061ZM6.41421 40.598L6.06066 40.2444L5.70711 40.598L6.06066 40.9515L6.41421 40.598ZM22.6777 56.8614L23.0312 57.215L23.3848 56.8614L23.0312 56.5079L22.6777 56.8614ZM21.9706 57.5686L21.617 57.9221L21.9706 58.2757L22.3241 57.9221L21.9706 57.5686ZM5 40.598L4.64645 40.2444L4.29289 40.598L4.64645 40.9515L5 40.598ZM24.799 20.799L25.1525 20.4454L24.799 20.0919L24.4454 20.4454L24.799 20.799ZM60.8614 18.6777L60.5079 19.0312L60.8614 19.3848L61.215 19.0312L60.8614 18.6777ZM44.598 2.41423L44.9515 2.06067L44.598 1.70712L44.2444 2.06067L44.598 2.41423ZM28.3345 18.6777L27.981 19.0312L28.3345 19.3848L28.6881 19.0312L28.3345 18.6777ZM27.6274 17.9706L27.2739 17.617L26.9203 17.9706L27.2739 18.3241L27.6274 17.9706ZM44.598 1.00001L44.9515 0.646459L44.598 0.292906L44.2444 0.646459L44.598 1.00001ZM61.5685 17.9706L61.9221 18.3241L62.2756 17.9706L61.9221 17.617L61.5685 17.9706ZM66.5183 56.8615L66.1647 56.5079L65.8112 56.8615L66.1647 57.215L66.5183 56.8615ZM82.7817 40.598L83.1353 40.9515L83.4889 40.598L83.1353 40.2444L82.7817 40.598ZM63.6899 21.5061L63.3363 21.1526L62.9828 21.5061L63.3363 21.8597L63.6899 21.5061ZM64.397 20.799L64.7505 20.4454L64.397 20.0919L64.0434 20.4454L64.397 20.799ZM84.196 40.598L84.5495 40.9515L84.9031 40.598L84.5495 40.2444L84.196 40.598ZM67.2254 57.5686L66.8718 57.9221L67.2254 58.2757L67.5789 57.9221L67.2254 57.5686ZM25.1525 60.0434L44.2444 79.1353L44.9515 78.4282L25.8596 59.3363L25.1525 60.0434ZM44.9515 79.1353L64.0434 60.0434L63.3363 59.3363L44.2444 78.4282L44.9515 79.1353ZM63.3363 60.0434L64.0434 60.7505L64.7505 60.0434L64.0434 59.3363L63.3363 60.0434ZM45.6586 79.8424L64.7505 60.7505L64.0434 60.0434L44.9515 79.1353L45.6586 79.8424ZM44.9515 80.5495L45.6586 79.8424L44.9515 79.1353L44.2444 79.8424L44.9515 80.5495ZM43.5373 79.8424L44.2444 80.5495L44.9515 79.8424L44.2444 79.1353L43.5373 79.8424ZM24.4454 60.7505L43.5373 79.8424L44.2444 79.1353L25.1525 60.0434L24.4454 60.7505ZM25.1525 60.7505L25.8596 60.0434L25.1525 59.3363L24.4454 60.0434L25.1525 60.7505ZM25.1525 21.1526L6.06066 40.2444L6.76777 40.9515L25.8596 21.8597L25.1525 21.1526ZM6.06066 40.9515L22.3241 57.215L23.0312 56.5079L6.76777 40.2444L6.06066 40.9515ZM22.3241 56.5079L21.617 57.215L22.3241 57.9221L23.0312 57.215L22.3241 56.5079ZM5.35355 41.6587L21.617 57.9221L22.3241 57.215L6.06066 40.9515L5.35355 41.6587ZM4.64645 40.9515L5.35355 41.6587L6.06066 40.9515L5.35355 40.2444L4.64645 40.9515ZM5.35355 39.5373L4.64645 40.2444L5.35355 40.9515L6.06066 40.2444L5.35355 39.5373ZM24.4454 20.4454L5.35355 39.5373L6.06066 40.2444L25.1525 21.1526L24.4454 20.4454ZM24.4454 21.1526L25.1525 21.8597L25.8596 21.1526L25.1525 20.4454L24.4454 21.1526ZM61.215 18.3241L44.9515 2.06067L44.2444 2.76778L60.5079 19.0312L61.215 18.3241ZM44.2444 2.06067L27.981 18.3241L28.6881 19.0312L44.9515 2.76778L44.2444 2.06067ZM28.6881 18.3241L27.981 17.617L27.2739 18.3241L27.981 19.0312L28.6881 18.3241ZM43.5373 1.35357L27.2739 17.617L27.981 18.3241L44.2444 2.06067L43.5373 1.35357ZM44.2444 0.646459L43.5373 1.35357L44.2444 2.06067L44.9515 1.35357L44.2444 0.646459ZM45.6586 1.35357L44.9515 0.646459L44.2444 1.35357L44.9515 2.06067L45.6586 1.35357ZM61.9221 17.617L45.6586 1.35357L44.9515 2.06067L61.215 18.3241L61.9221 17.617ZM61.215 17.617L60.5079 18.3241L61.215 19.0312L61.9221 18.3241L61.215 17.617ZM66.8718 57.215L83.1353 40.9515L82.4282 40.2444L66.1647 56.5079L66.8718 57.215ZM83.1353 40.2444L64.0434 21.1526L63.3363 21.8597L82.4282 40.9515L83.1353 40.2444ZM64.0434 21.8597L64.7505 21.1526L64.0434 20.4454L63.3363 21.1526L64.0434 21.8597ZM83.8424 39.5373L64.7505 20.4454L64.0434 21.1526L83.1353 40.2444L83.8424 39.5373ZM84.5495 40.2444L83.8424 39.5373L83.1353 40.2444L83.8424 40.9515L84.5495 40.2444ZM83.8424 41.6587L84.5495 40.9515L83.8424 40.2444L83.1353 40.9515L83.8424 41.6587ZM67.5789 57.9221L83.8424 41.6587L83.1353 40.9515L66.8718 57.215L67.5789 57.9221ZM67.5789 57.215L66.8718 56.5079L66.1647 57.215L66.8718 57.9221L67.5789 57.215Z" fill="#64FFDA"/>
</g>
<g filter="url(#filter1_d)">
<path d="M40.023 45.008C40.023 46.218 39.873 47.308 39.573 48.278C39.283 49.238 38.843 50.058 38.253 50.738C37.673 51.408 36.948 51.928 36.078 52.298C35.218 52.658 34.218 52.838 33.078 52.838C32.558 52.838 32.043 52.803 31.533 52.733C31.023 52.673 30.493 52.573 29.943 52.433L30.123 50.333C30.153 50.133 30.228 49.973 30.348 49.853C30.478 49.733 30.663 49.673 30.903 49.673C31.083 49.673 31.313 49.713 31.593 49.793C31.883 49.863 32.258 49.898 32.718 49.898C33.328 49.898 33.868 49.808 34.338 49.628C34.818 49.448 35.218 49.168 35.538 48.788C35.868 48.398 36.113 47.903 36.273 47.303C36.443 46.693 36.528 45.958 36.528 45.098V30.998H40.023V45.008ZM56.2314 34.688C56.1214 34.868 56.0064 35.003 55.8864 35.093C55.7664 35.173 55.6164 35.213 55.4364 35.213C55.2464 35.213 55.0314 35.133 54.7914 34.973C54.5614 34.813 54.2714 34.638 53.9214 34.448C53.5814 34.248 53.1764 34.068 52.7064 33.908C52.2364 33.738 51.6764 33.653 51.0264 33.653C50.4264 33.653 49.8964 33.728 49.4364 33.878C48.9864 34.028 48.6064 34.238 48.2964 34.508C47.9864 34.778 47.7514 35.098 47.5914 35.468C47.4414 35.828 47.3664 36.223 47.3664 36.653C47.3664 37.203 47.5114 37.663 47.8014 38.033C48.0914 38.393 48.4714 38.703 48.9414 38.963C49.4214 39.223 49.9664 39.453 50.5764 39.653C51.1864 39.843 51.8064 40.048 52.4364 40.268C53.0764 40.488 53.7014 40.738 54.3114 41.018C54.9214 41.298 55.4614 41.653 55.9314 42.083C56.4114 42.513 56.7964 43.038 57.0864 43.658C57.3764 44.278 57.5214 45.033 57.5214 45.923C57.5214 46.883 57.3564 47.783 57.0264 48.623C56.6964 49.463 56.2164 50.198 55.5864 50.828C54.9664 51.448 54.1964 51.938 53.2764 52.298C52.3664 52.658 51.3264 52.838 50.1564 52.838C49.4664 52.838 48.7914 52.768 48.1314 52.628C47.4814 52.498 46.8564 52.313 46.2564 52.073C45.6664 51.823 45.1114 51.523 44.5914 51.173C44.0714 50.823 43.6064 50.433 43.1964 50.003L44.2164 48.323C44.3064 48.183 44.4214 48.073 44.5614 47.993C44.7014 47.913 44.8564 47.873 45.0264 47.873C45.2564 47.873 45.5114 47.983 45.7914 48.203C46.0714 48.413 46.4064 48.648 46.7964 48.908C47.1964 49.158 47.6764 49.393 48.2364 49.613C48.7964 49.823 49.4664 49.928 50.2464 49.928C51.5164 49.928 52.4964 49.618 53.1864 48.998C53.8864 48.378 54.2364 47.523 54.2364 46.433C54.2364 45.823 54.0914 45.328 53.8014 44.948C53.5114 44.558 53.1264 44.233 52.6464 43.973C52.1764 43.713 51.6364 43.493 51.0264 43.313C50.4164 43.133 49.7964 42.943 49.1664 42.743C48.5364 42.533 47.9164 42.293 47.3064 42.023C46.6964 41.743 46.1514 41.383 45.6714 40.943C45.2014 40.493 44.8214 39.943 44.5314 39.293C44.2414 38.633 44.0964 37.813 44.0964 36.833C44.0964 36.053 44.2464 35.298 44.5464 34.568C44.8564 33.838 45.3014 33.193 45.8814 32.633C46.4714 32.063 47.1964 31.608 48.0564 31.268C48.9164 30.928 49.8964 30.758 50.9964 30.758C52.2364 30.758 53.3714 30.953 54.4014 31.343C55.4414 31.733 56.3364 32.288 57.0864 33.008L56.2314 34.688Z" fill="#64FFDA"/>
</g>
<defs>
<filter id="filter0_d" x="0.292908" y="0.292908" width="88.6102" height="88.6102" filterUnits="userSpaceOnUse" color-interpolation-filters="sRGB">
<feFlood flood-opacity="0" result="BackgroundImageFix"/>
<feColorMatrix in="SourceAlpha" type="matrix" values="0 0 0 0 0 0 0 0 0 0 0 0 0 0 0 0 0 0 127 0"/>
<feOffset dy="4"/>
<feGaussianBlur stdDeviation="2"/>
<feColorMatrix type="matrix" values="0 0 0 0 0 0 0 0 0 0 0 0 0 0 0 0 0 0 0.25 0"/>
<feBlend mode="normal" in2="BackgroundImageFix" result="effect1_dropShadow"/>
<feBlend mode="normal" in="SourceGraphic" in2="effect1_dropShadow" result="shape"/>
</filter>
<filter id="filter1_d" x="25.943" y="30.758" width="35.5784" height="30.08" filterUnits="userSpaceOnUse" color-interpolation-filters="sRGB">
<feFlood flood-opacity="0" result="BackgroundImageFix"/>
<feColorMatrix in="SourceAlpha" type="matrix" values="0 0 0 0 0 0 0 0 0 0 0 0 0 0 0 0 0 0 127 0"/>
<feOffset dy="4"/>
<feGaussianBlur stdDeviation="2"/>
<feColorMatrix type="matrix" values="0 0 0 0 0 0 0 0 0 0 0 0 0 0 0 0 0 0 0.25 0"/>
<feBlend mode="normal" in2="BackgroundImageFix" result="effect1_dropShadow"/>
<feBlend mode="normal" in="SourceGraphic" in2="effect1_dropShadow" result="shape"/>
</filter>
</defs>
</svg>
