<svg width="89" height="89" viewBox="0 0 89 89" fill="none" xmlns="http://www.w3.org/2000/svg">
<g filter="url(#filter0_d)">
<path d="M25.5061 59.6898L25.8596 59.3363L25.5061 58.9827L25.1525 59.3363L25.5061 59.6898ZM44.598 78.7817L44.2444 79.1353L44.598 79.4888L44.9515 79.1353L44.598 78.7817ZM63.6899 59.6898L64.0434 59.3363L63.6899 58.9827L63.3363 59.3363L63.6899 59.6898ZM64.397 60.397L64.7505 60.7505L65.1041 60.397L64.7505 60.0434L64.397 60.397ZM44.598 80.1959L44.2444 80.5495L44.598 80.903L44.9515 80.5495L44.598 80.1959ZM24.799 60.397L24.4454 60.0434L24.0919 60.397L24.4454 60.7505L24.799 60.397ZM25.5061 21.5061L25.8596 21.8596L26.2132 21.5061L25.8596 21.1525L25.5061 21.5061ZM6.41421 40.598L6.06066 40.2444L5.70711 40.598L6.06066 40.9515L6.41421 40.598ZM22.6777 56.8614L23.0312 57.215L23.3848 56.8614L23.0312 56.5079L22.6777 56.8614ZM21.9706 57.5685L21.617 57.9221L21.9706 58.2756L22.3241 57.9221L21.9706 57.5685ZM5 40.598L4.64645 40.2444L4.29289 40.598L4.64645 40.9515L5 40.598ZM24.799 20.799L25.1525 20.4454L24.799 20.0919L24.4454 20.4454L24.799 20.799ZM60.8614 18.6777L60.5079 19.0312L60.8614 19.3848L61.215 19.0312L60.8614 18.6777ZM44.598 2.4142L44.9515 2.06064L44.598 1.70709L44.2444 2.06064L44.598 2.4142ZM28.3345 18.6777L27.981 19.0312L28.3345 19.3848L28.6881 19.0312L28.3345 18.6777ZM27.6274 17.9705L27.2739 17.617L26.9203 17.9705L27.2739 18.3241L27.6274 17.9705ZM44.598 0.999982L44.9515 0.646429L44.598 0.292876L44.2444 0.646429L44.598 0.999982ZM61.5685 17.9705L61.9221 18.3241L62.2756 17.9705L61.9221 17.617L61.5685 17.9705ZM66.5183 56.8614L66.1647 56.5079L65.8112 56.8614L66.1647 57.215L66.5183 56.8614ZM82.7817 40.598L83.1353 40.9515L83.4889 40.598L83.1353 40.2444L82.7817 40.598ZM63.6899 21.5061L63.3363 21.1525L62.9828 21.5061L63.3363 21.8596L63.6899 21.5061ZM64.397 20.799L64.7505 20.4454L64.397 20.0919L64.0434 20.4454L64.397 20.799ZM84.196 40.598L84.5495 40.9515L84.9031 40.598L84.5495 40.2444L84.196 40.598ZM67.2254 57.5685L66.8718 57.9221L67.2254 58.2756L67.5789 57.9221L67.2254 57.5685ZM25.1525 60.0434L44.2444 79.1353L44.9515 78.4282L25.8596 59.3363L25.1525 60.0434ZM44.9515 79.1353L64.0434 60.0434L63.3363 59.3363L44.2444 78.4282L44.9515 79.1353ZM63.3363 60.0434L64.0434 60.7505L64.7505 60.0434L64.0434 59.3363L63.3363 60.0434ZM45.6586 79.8424L64.7505 60.7505L64.0434 60.0434L44.9515 79.1353L45.6586 79.8424ZM44.9515 80.5495L45.6586 79.8424L44.9515 79.1353L44.2444 79.8424L44.9515 80.5495ZM43.5373 79.8424L44.2444 80.5495L44.9515 79.8424L44.2444 79.1353L43.5373 79.8424ZM24.4454 60.7505L43.5373 79.8424L44.2444 79.1353L25.1525 60.0434L24.4454 60.7505ZM25.1525 60.7505L25.8596 60.0434L25.1525 59.3363L24.4454 60.0434L25.1525 60.7505ZM25.1525 21.1525L6.06066 40.2444L6.76777 40.9515L25.8596 21.8596L25.1525 21.1525ZM6.06066 40.9515L22.3241 57.215L23.0312 56.5079L6.76777 40.2444L6.06066 40.9515ZM22.3241 56.5079L21.617 57.215L22.3241 57.9221L23.0312 57.215L22.3241 56.5079ZM5.35355 41.6586L21.617 57.9221L22.3241 57.215L6.06066 40.9515L5.35355 41.6586ZM4.64645 40.9515L5.35355 41.6586L6.06066 40.9515L5.35355 40.2444L4.64645 40.9515ZM5.35355 39.5373L4.64645 40.2444L5.35355 40.9515L6.06066 40.2444L5.35355 39.5373ZM24.4454 20.4454L5.35355 39.5373L6.06066 40.2444L25.1525 21.1525L24.4454 20.4454ZM24.4454 21.1525L25.1525 21.8596L25.8596 21.1525L25.1525 20.4454L24.4454 21.1525ZM61.215 18.3241L44.9515 2.06064L44.2444 2.76775L60.5079 19.0312L61.215 18.3241ZM44.2444 2.06064L27.981 18.3241L28.6881 19.0312L44.9515 2.76775L44.2444 2.06064ZM28.6881 18.3241L27.981 17.617L27.2739 18.3241L27.981 19.0312L28.6881 18.3241ZM43.5373 1.35354L27.2739 17.617L27.981 18.3241L44.2444 2.06064L43.5373 1.35354ZM44.2444 0.646429L43.5373 1.35354L44.2444 2.06064L44.9515 1.35354L44.2444 0.646429ZM45.6586 1.35354L44.9515 0.646429L44.2444 1.35354L44.9515 2.06064L45.6586 1.35354ZM61.9221 17.617L45.6586 1.35354L44.9515 2.06064L61.215 18.3241L61.9221 17.617ZM61.215 17.617L60.5079 18.3241L61.215 19.0312L61.9221 18.3241L61.215 17.617ZM66.8718 57.215L83.1353 40.9515L82.4282 40.2444L66.1647 56.5079L66.8718 57.215ZM83.1353 40.2444L64.0434 21.1525L63.3363 21.8596L82.4282 40.9515L83.1353 40.2444ZM64.0434 21.8596L64.7505 21.1525L64.0434 20.4454L63.3363 21.1525L64.0434 21.8596ZM83.8424 39.5373L64.7505 20.4454L64.0434 21.1525L83.1353 40.2444L83.8424 39.5373ZM84.5495 40.2444L83.8424 39.5373L83.1353 40.2444L83.8424 40.9515L84.5495 40.2444ZM83.8424 41.6586L84.5495 40.9515L83.8424 40.2444L83.1353 40.9515L83.8424 41.6586ZM67.5789 57.9221L83.8424 41.6586L83.1353 40.9515L66.8718 57.215L67.5789 57.9221ZM67.5789 57.215L66.8718 56.5079L66.1647 57.215L66.8718 57.9221L67.5789 57.215Z" fill="#64FFDA"/>
</g>
<defs>
<filter id="filter0_d" x="0.292892" y="0.292847" width="88.6102" height="88.6102" filterUnits="userSpaceOnUse" color-interpolation-filters="sRGB">
<feFlood flood-opacity="0" result="BackgroundImageFix"/>
<feColorMatrix in="SourceAlpha" type="matrix" values="0 0 0 0 0 0 0 0 0 0 0 0 0 0 0 0 0 0 127 0"/>
<feOffset dy="4"/>
<feGaussianBlur stdDeviation="2"/>
<feColorMatrix type="matrix" values="0 0 0 0 0 0 0 0 0 0 0 0 0 0 0 0 0 0 0.25 0"/>
<feBlend mode="normal" in2="BackgroundImageFix" result="effect1_dropShadow"/>
<feBlend mode="normal" in="SourceGraphic" in2="effect1_dropShadow" result="shape"/>
</filter>
</defs>
</svg>
