<svg width="37" height="31" viewBox="0 0 37 31" fill="none" xmlns="http://www.w3.org/2000/svg">
<g filter="url(#filter0_d)">
<path d="M15.023 15.0079C15.023 16.2179 14.873 17.3079 14.573 18.2779C14.283 19.2379 13.843 20.0579 13.253 20.7379C12.673 21.4079 11.948 21.9279 11.078 22.2979C10.218 22.6579 9.21796 22.8379 8.07796 22.8379C7.55796 22.8379 7.04296 22.8029 6.53296 22.7329C6.02296 22.6729 5.49296 22.5729 4.94296 22.4329L5.12296 20.3329C5.15296 20.1329 5.22796 19.9729 5.34796 19.8529C5.47796 19.7329 5.66296 19.6729 5.90296 19.6729C6.08296 19.6729 6.31296 19.7129 6.59296 19.7929C6.88296 19.8629 7.25796 19.8979 7.71796 19.8979C8.32796 19.8979 8.86796 19.8079 9.33796 19.6279C9.81796 19.4479 10.218 19.1679 10.538 18.7879C10.868 18.3979 11.113 17.9029 11.273 17.3029C11.443 16.6929 11.528 15.9579 11.528 15.0979V0.997935H15.023V15.0079Z" fill="#64FFDA"/>
<path d="M31.2314 4.68794C31.1214 4.86794 31.0064 5.00294 30.8864 5.09294C30.7664 5.17294 30.6164 5.21294 30.4364 5.21294C30.2464 5.21294 30.0314 5.13294 29.7914 4.97293C29.5614 4.81293 29.2714 4.63793 28.9214 4.44794C28.5814 4.24794 28.1764 4.06794 27.7064 3.90794C27.2364 3.73794 26.6764 3.65294 26.0264 3.65294C25.4264 3.65294 24.8964 3.72794 24.4364 3.87794C23.9864 4.02794 23.6064 4.23794 23.2964 4.50793C22.9864 4.77794 22.7514 5.09794 22.5914 5.46793C22.4414 5.82793 22.3664 6.22293 22.3664 6.65293C22.3664 7.20294 22.5114 7.66294 22.8014 8.03293C23.0914 8.39293 23.4714 8.70294 23.9414 8.96294C24.4214 9.22294 24.9664 9.45294 25.5764 9.65294C26.1864 9.84293 26.8064 10.0479 27.4364 10.2679C28.0764 10.4879 28.7014 10.7379 29.3114 11.0179C29.9214 11.2979 30.4614 11.6529 30.9314 12.0829C31.4114 12.5129 31.7964 13.0379 32.0864 13.6579C32.3764 14.2779 32.5214 15.0329 32.5214 15.9229C32.5214 16.8829 32.3564 17.7829 32.0264 18.6229C31.6964 19.4629 31.2164 20.1979 30.5864 20.8279C29.9664 21.4479 29.1964 21.9379 28.2764 22.2979C27.3664 22.6579 26.3264 22.8379 25.1564 22.8379C24.4664 22.8379 23.7914 22.7679 23.1314 22.6279C22.4814 22.4979 21.8564 22.3129 21.2564 22.0729C20.6664 21.8229 20.1114 21.5229 19.5914 21.1729C19.0714 20.8229 18.6064 20.4329 18.1964 20.0029L19.2164 18.3229C19.3064 18.1829 19.4214 18.0729 19.5614 17.9929C19.7014 17.9129 19.8564 17.8729 20.0264 17.8729C20.2564 17.8729 20.5114 17.9829 20.7914 18.2029C21.0714 18.4129 21.4064 18.6479 21.7964 18.9079C22.1964 19.1579 22.6764 19.3929 23.2364 19.6129C23.7964 19.8229 24.4664 19.9279 25.2464 19.9279C26.5164 19.9279 27.4964 19.6179 28.1864 18.9979C28.8864 18.3779 29.2364 17.5229 29.2364 16.4329C29.2364 15.8229 29.0914 15.3279 28.8014 14.9479C28.5114 14.5579 28.1264 14.2329 27.6464 13.9729C27.1764 13.7129 26.6364 13.4929 26.0264 13.3129C25.4164 13.1329 24.7964 12.9429 24.1664 12.7429C23.5364 12.5329 22.9164 12.2929 22.3064 12.0229C21.6964 11.7429 21.1514 11.3829 20.6714 10.9429C20.2014 10.4929 19.8214 9.94294 19.5314 9.29294C19.2414 8.63293 19.0964 7.81294 19.0964 6.83294C19.0964 6.05294 19.2464 5.29794 19.5464 4.56794C19.8564 3.83793 20.3014 3.19293 20.8814 2.63293C21.4714 2.06294 22.1964 1.60794 23.0564 1.26794C23.9164 0.927935 24.8964 0.757935 25.9964 0.757935C27.2364 0.757935 28.3714 0.952935 29.4014 1.34294C30.4414 1.73294 31.3364 2.28794 32.0864 3.00793L31.2314 4.68794Z" fill="#64FFDA"/>
</g>
<defs>
<filter id="filter0_d" x="0.942963" y="0.757935" width="35.5784" height="30.08" filterUnits="userSpaceOnUse" color-interpolation-filters="sRGB">
<feFlood flood-opacity="0" result="BackgroundImageFix"/>
<feColorMatrix in="SourceAlpha" type="matrix" values="0 0 0 0 0 0 0 0 0 0 0 0 0 0 0 0 0 0 127 0"/>
<feOffset dy="4"/>
<feGaussianBlur stdDeviation="2"/>
<feColorMatrix type="matrix" values="0 0 0 0 0 0 0 0 0 0 0 0 0 0 0 0 0 0 0.25 0"/>
<feBlend mode="normal" in2="BackgroundImageFix" result="effect1_dropShadow"/>
<feBlend mode="normal" in="SourceGraphic" in2="effect1_dropShadow" result="shape"/>
</filter>
</defs>
</svg>
